<svg width="137" height="75" viewBox="0 0 137 75" fill="none" xmlns="http://www.w3.org/2000/svg">
<path d="M7.77136 30.3606C7.77136 33.0361 9.1576 34.3738 11.9301 34.3738C14.7306 34.3738 16.1308 33.1718 16.1308 30.7677C16.1308 29.4882 15.6547 28.4413 14.7026 27.627C13.7504 26.8127 12.5882 26.1342 11.216 25.5913C9.87172 25.0485 8.51349 24.4281 7.14125 23.7301C5.79701 22.9934 4.64881 21.8689 3.69665 20.3567C2.74448 18.8057 2.2684 16.8864 2.2684 14.5987C2.2684 4.86623 6.79118 0 15.8368 0C19.1413 0 21.6338 0.872431 23.3141 2.61729C25.0224 4.32338 25.8765 6.70803 25.8765 9.77123C25.8765 10.8957 25.7645 11.9814 25.5405 13.0283C25.3444 14.0364 25.1344 14.7538 24.9103 15.1803L24.5743 15.8782H17.139C17.7551 14.9864 18.0632 13.862 18.0632 12.5048C18.0632 9.98449 16.8729 8.72431 14.4925 8.72431C11.496 8.72431 9.99774 10.0427 9.99774 12.6793C9.99774 13.9977 10.4738 15.0446 11.426 15.8201C12.3782 16.5956 13.5264 17.216 14.8706 17.6813C16.2428 18.1078 17.6151 18.6506 18.9873 19.3098C20.3596 19.969 21.5218 21.0741 22.4739 22.625C23.4261 24.1373 23.9022 26.1148 23.9022 28.5576C23.9022 33.482 22.838 37.1462 20.7096 39.5502C18.5812 41.9155 15.3047 43.0981 10.8799 43.0981C6.45513 43.0981 3.4306 42.0124 1.80632 39.841C0.602105 38.2125 0 35.9636 0 33.0942C0 32.0085 0.0840147 30.8259 0.252044 29.5463L0.378066 28.6157H7.93939L7.85537 29.3137C7.79936 29.7014 7.77136 30.0504 7.77136 30.3606Z" fill="#171719"/>
<path d="M41.1856 29.5463H36.1867L34.5484 42.2838H26.9871L32.322 0.407136H45.1342C48.2988 0.407136 50.5532 1.41528 51.8974 3.43156C52.8776 4.98255 53.3677 6.96006 53.3677 9.36409C53.3677 10.1784 53.3117 11.0314 53.1997 11.9232L52.3595 18.4955C51.9394 21.7138 50.7072 24.3699 48.6629 26.4637C46.6185 28.5188 44.1261 29.5463 41.1856 29.5463ZM42.4878 9.48042H38.7071L37.3209 20.473H41.0595C43.3559 20.473 44.6862 19.0578 45.0502 16.2272L45.3443 13.8426C45.4003 13.4936 45.4283 13.0283 45.4283 12.4467C45.4283 11.8651 45.2183 11.2253 44.7982 10.5273C44.3781 9.82939 43.608 9.48042 42.4878 9.48042Z" fill="#171719"/>
<path d="M69.8374 42.2838L59.3356 33.196L56.7101 42.2838H48.8338L62.1062 0.407136H75.9686L77.7138 42.2838H69.8374ZM66.4329 10.5855L59.3356 33.196L69.8374 42.2838V10.5855H66.4329Z" fill="#171719"/>
<path d="M97.6286 0.407136C100.821 0.407136 103.09 1.3765 104.434 3.31524C105.442 4.78868 105.946 6.64987 105.946 8.8988C105.946 9.67429 105.89 10.4886 105.778 11.3416L105.19 15.8782C104.854 18.3986 104.266 20.4343 103.426 21.9853C102.614 23.5363 101.703 24.6413 100.695 25.3005L104.518 42.2838H96.0324L92.5037 26.6382H89.8993L88.177 42.2838H80.1116L85.4465 0.407136H97.6286ZM94.9822 9.48042H91.8316L90.7394 19.6006H93.6799C95.1642 19.6006 96.2284 19.1159 96.8725 18.1466C97.5166 17.1384 97.8387 15.8201 97.8387 14.1915C97.8387 11.0508 96.8865 9.48042 94.9822 9.48042Z" fill="#171719"/>
<path d="M137 0.407136L127.38 21.52L131.665 42.2838H123.684L120.533 26.929H117.215L115.24 42.2838H107.679L113.014 0.407136H120.575L118.349 17.8558H121.037L129.019 0.407136H137Z" fill="#171719"/>
<path d="M59.3356 35.0136H71.0043L69.8374 36.8311H71.1502L69.8374 38.6487H71.1502L69.8374 40.4663H71.1502L69.8374 42.2838H71.1502H68.0871L72.4629 75L72.4341 74.7846L59.3356 35.0136Z" fill="#DAB020"/>
</svg>
