<svg display="none" xmlns="http://www.w3.org/2000/svg" aria-hidden="true"
    style="position: absolute; width: 0; height: 0; overflow: hidden;" version="1.1">

    <symbol id="arrow-down" viewBox="0 0 6 5">
        <path fill-rule="evenodd" clip-rule="evenodd"
            d="M3 4.08331C2.86739 4.08331 2.74021 4.03063 2.64645 3.93687L0.146447 1.43687C-0.0488157 1.2416 -0.0488157 0.925022 0.146447 0.72976C0.341709 0.534498 0.658291 0.534498 0.853553 0.72976L3 2.87621L5.14645 0.72976C5.34171 0.534498 5.65829 0.534498 5.85355 0.72976C6.04882 0.925022 6.04882 1.2416 5.85355 1.43687L3.35355 3.93687C3.25979 4.03063 3.13261 4.08331 3 4.08331Z" />
    </symbol>

    <symbol id="arrow-right" viewBox="0 0 21 20">
        <path fill-rule="evenodd" clip-rule="evenodd" d="M10.3076 19.5C15.5543 19.5 19.8076 15.2467 19.8076 10C19.8076 4.75329 15.5543 0.5 10.3076 0.5C5.06091 0.5 0.807617 4.75329 0.807617 10C0.807617 15.2467 5.06091 19.5 10.3076 19.5ZM10.3076 20C15.8305 20 20.3076 15.5228 20.3076 10C20.3076 4.47715 15.8305 0 10.3076 0C4.78477 0 0.307617 4.47715 0.307617 10C0.307617 15.5228 4.78477 20 10.3076 20Z"/>
        <path fill-rule="evenodd" clip-rule="evenodd" d="M13.5576 10.5C13.5576 10.6989 13.4786 10.8897 13.3379 11.0303L9.58795 14.7803C9.29505 15.0732 8.82018 15.0732 8.52729 14.7803C8.23439 14.4874 8.23439 14.0126 8.52729 13.7197L11.747 10.5L8.52729 7.28033C8.23439 6.98744 8.23439 6.51256 8.52729 6.21967C8.82018 5.92678 9.29505 5.92678 9.58795 6.21967L13.3379 9.96967C13.4786 10.1103 13.5576 10.3011 13.5576 10.5Z"/>
    </symbol>

    <symbol id="gmail" viewBox="0 0 20 16">
        <path
            d="M17.25 0H2.75C1.233 0 0 1.09689 0 2.44622V13.5529C0 14.9022 1.233 16 2.75 16H17.25C18.767 16 20 14.9022 20 13.5529V2.44622C20 1.09689 18.767 0 17.25 0ZM2.75 1.33333H17.25C17.94 1.33333 18.5 1.83111 18.5 2.44444V3.07911L10.45 7.84978C10.177 8.00978 9.824 8.01156 9.55 7.848L1.5 3.07911V2.44444C1.5 1.83111 2.06 1.33333 2.75 1.33333ZM17.25 14.6649H2.75C2.06 14.6649 1.5 14.1671 1.5 13.5538V4.64178L8.74 8.93511C9.123 9.16267 9.562 9.27645 10 9.27645C10.44 9.27645 10.877 9.16267 11.26 8.936L18.5 4.64267V13.5511C18.5 14.1644 17.94 14.6622 17.25 14.6622V14.6649Z" />
    </symbol>

    <symbol id="moon" viewBox="0 0 17 17">
        <path fill-rule="evenodd" clip-rule="evenodd"
            d="M6.94918 0.234852C7.15838 0.444032 7.23542 0.751409 7.1496 1.03453C6.95297 1.68318 6.84696 2.37215 6.84696 3.08732C6.84696 6.98908 10.01 10.1521 13.9117 10.1521C14.6272 10.1521 15.3165 10.046 15.9654 9.84919C16.2485 9.76334 16.5559 9.84033 16.7651 10.0495C16.9743 10.2587 17.0513 10.5661 16.9655 10.8492C15.8868 14.4079 12.5814 16.9997 8.66855 16.9997C3.88104 16.9997 0 13.1187 0 8.33116C0 4.41871 2.59133 1.11359 6.14947 0.0345322C6.43258 -0.0513258 6.73997 0.0256723 6.94918 0.234852ZM5.29647 2.12131C3.09628 3.31865 1.60378 5.65135 1.60378 8.33116C1.60378 12.2329 4.76678 15.3959 8.66855 15.3959C11.3487 15.3959 13.6816 13.9031 14.8788 11.7025C14.5612 11.7378 14.2385 11.7559 13.9117 11.7559C9.12422 11.7559 5.24318 7.87483 5.24318 3.08732C5.24318 2.76097 5.26125 2.43863 5.29647 2.12131Z" />
    </symbol>

    <symbol id="sun" viewBox="0 0 17 17">
        <path fill-rule="evenodd" clip-rule="evenodd"
            d="M8.5 0C8.94287 0 9.30189 0.359017 9.30189 0.801887V3.29857C9.30189 3.74144 8.94287 4.10046 8.5 4.10046C8.05713 4.10046 7.69811 3.74144 7.69811 3.29857V0.801887C7.69811 0.359017 8.05713 0 8.5 0ZM2.48917 2.48958C2.80233 2.17642 3.31006 2.17642 3.62321 2.48958L5.38863 4.255C5.70179 4.56816 5.70179 5.07588 5.38863 5.38904C5.07548 5.7022 4.56775 5.7022 4.2546 5.38904L2.48917 3.62362C2.17602 3.31046 2.17602 2.80274 2.48917 2.48958ZM14.5106 2.48977C14.8238 2.80292 14.8238 3.31065 14.5106 3.62381L12.7452 5.38923C12.4321 5.70239 11.9243 5.70239 11.6112 5.38923C11.298 5.07607 11.298 4.56835 11.6112 4.25519L13.3766 2.48977C13.6898 2.17661 14.1975 2.17661 14.5106 2.48977ZM8.47494 6.31361C7.32348 6.31361 6.39004 7.24705 6.39004 8.39851C6.39004 9.54997 7.32348 10.4834 8.47494 10.4834C9.6264 10.4834 10.5598 9.54997 10.5598 8.39851C10.5598 7.24705 9.6264 6.31361 8.47494 6.31361ZM4.78626 8.39851C4.78626 6.36131 6.43774 4.70983 8.47494 4.70983C10.5121 4.70983 12.1636 6.36131 12.1636 8.39851C12.1636 10.4357 10.5121 12.0872 8.47494 12.0872C6.43774 12.0872 4.78626 10.4357 4.78626 8.39851ZM0 8.5C0 8.05713 0.359017 7.69811 0.801887 7.69811H3.29857C3.74144 7.69811 4.10046 8.05713 4.10046 8.5C4.10046 8.94287 3.74144 9.30189 3.29857 9.30189H0.801887C0.359017 9.30189 0 8.94287 0 8.5ZM12.8995 8.5C12.8995 8.05713 13.2586 7.69811 13.7014 7.69811H16.1981C16.641 7.69811 17 8.05713 17 8.5C17 8.94287 16.641 9.30189 16.1981 9.30189H13.7014C13.2586 9.30189 12.8995 8.94287 12.8995 8.5ZM11.6112 11.6108C11.9243 11.2976 12.4321 11.2976 12.7452 11.6108L14.5106 13.3762C14.8238 13.6893 14.8238 14.1971 14.5106 14.5102C14.1975 14.8234 13.6898 14.8234 13.3766 14.5102L11.6112 12.7448C11.298 12.4317 11.298 11.9239 11.6112 11.6108ZM5.38863 11.611C5.70179 11.9241 5.70179 12.4318 5.38863 12.745L3.62321 14.5104C3.31006 14.8236 2.80233 14.8236 2.48917 14.5104C2.17602 14.1973 2.17602 13.6895 2.48917 13.3764L4.2546 11.611C4.56775 11.2978 5.07548 11.2978 5.38863 11.611ZM8.5 12.8995C8.94287 12.8995 9.30189 13.2586 9.30189 13.7014V16.1981C9.30189 16.641 8.94287 17 8.5 17C8.05713 17 7.69811 16.641 7.69811 16.1981V13.7014C7.69811 13.2586 8.05713 12.8995 8.5 12.8995Z" />
    </symbol>
</svg>