<svg xmlns="http://www.w3.org/2000/svg" version="1.1" xmlns:xlink="http://www.w3.org/1999/xlink" xmlns:svgjs="http://svgjs.dev/svgjs" width="1000" height="1000"><g clip-path="url(#SvgjsClipPath1301)"><rect width="1000" height="1000" fill="#000000"></rect><g transform="matrix(0.3812636165577342,0,0,0.3812636165577342,150,361.7919389978214)"><svg xmlns="http://www.w3.org/2000/svg" version="1.1" xmlns:xlink="http://www.w3.org/1999/xlink" xmlns:svgjs="http://svgjs.dev/svgjs" width="1836" height="725"><svg width="1836" height="725" viewBox="0 0 1836 725" fill="none" xmlns="http://www.w3.org/2000/svg">
<path d="M104.148 293.486C104.148 319.349 122.725 332.28 159.88 332.28C197.411 332.28 216.176 320.66 216.176 297.421C216.176 285.052 209.796 274.932 197.036 267.061C184.275 259.19 168.7 252.63 150.31 247.383C132.295 242.135 114.093 236.138 95.7031 229.391C77.6884 222.27 62.3009 211.4 49.5404 196.782C36.78 181.789 30.3998 163.235 30.3998 141.121C30.3998 47.0402 91.0118 0 212.236 0C256.522 0 289.924 8.4335 312.443 25.3005C335.336 41.7927 346.783 64.8443 346.783 94.4552C346.783 105.325 345.282 115.82 342.279 125.94C339.652 135.686 336.837 142.62 333.835 146.743L329.331 153.49H229.687C237.944 144.869 242.073 133.999 242.073 120.88C242.073 96.5167 226.122 84.335 194.221 84.335C154.063 84.335 133.984 97.079 133.984 122.567C133.984 135.311 140.365 145.431 153.125 152.927C165.885 160.424 181.273 166.421 199.288 170.919C217.678 175.042 236.068 180.29 254.458 186.661C272.848 193.033 288.423 203.716 301.183 218.709C313.944 233.327 320.324 252.443 320.324 276.057C320.324 323.659 306.062 359.08 277.539 382.319C249.016 405.183 205.105 416.615 145.807 416.615C86.5081 416.615 45.975 406.12 24.2073 385.13C8.06909 369.387 0 347.648 0 319.911C0 309.416 1.12592 297.984 3.37776 285.615L5.06664 276.619H106.399L105.273 283.366C104.523 287.114 104.148 290.487 104.148 293.486Z" fill="#ECECEC"></path>
<path d="M551.947 285.615H484.954L462.999 408.744H361.666L433.162 3.93565H604.865C647.274 3.93565 677.487 13.681 695.501 33.1718C708.637 48.1647 715.205 67.2806 715.205 90.5196C715.205 98.3909 714.454 106.637 712.953 115.258L701.694 178.79C696.064 209.9 679.551 235.576 652.153 255.816C624.756 275.682 591.354 285.615 551.947 285.615ZM569.398 91.6441H518.732L500.154 197.906H550.258C581.033 197.906 598.86 184.225 603.739 156.863L607.68 133.812C608.43 130.438 608.806 125.94 608.806 120.318C608.806 114.696 605.991 108.511 600.361 101.764C594.731 95.0175 584.411 91.6441 569.398 91.6441Z" fill="#ECECEC"></path>
<path d="M935.924 408.744L795.184 320.895L759.999 408.744H654.444L832.314 3.93565H1018.09L1041.48 408.744H935.924ZM890.298 102.326L795.184 320.895L935.924 408.744V102.326H890.298Z" fill="#ECECEC"></path>
<path d="M1308.37 3.93565C1351.15 3.93565 1381.55 13.3062 1399.57 32.0473C1413.08 46.2906 1419.83 64.282 1419.83 86.0217C1419.83 93.5182 1419.08 101.389 1417.58 109.636L1409.7 153.49C1405.2 177.853 1397.31 197.531 1386.05 212.524C1375.17 227.517 1362.97 238.2 1349.46 244.572L1400.69 408.744H1286.97L1239.69 257.503H1204.78L1181.7 408.744H1073.61L1145.11 3.93565H1308.37ZM1272.9 91.6441H1230.68L1216.04 189.473H1255.45C1275.34 189.473 1289.6 184.787 1298.23 175.417C1306.87 165.671 1311.18 152.927 1311.18 137.185C1311.18 106.824 1298.42 91.6441 1272.9 91.6441Z" fill="#ECECEC"></path>
<path d="M1836 3.93565L1707.08 208.026L1764.5 408.744H1657.54L1615.32 260.314H1570.85L1544.39 408.744H1443.05L1514.55 3.93565H1615.88L1586.05 172.606H1622.08L1729.04 3.93565H1836Z" fill="#ECECEC"></path>
<path d="M795.184 338.465H951.561L935.924 356.034H953.516L935.924 373.604H953.516L935.924 391.174H953.516L935.924 408.744H953.516H912.467L971.109 725L970.722 722.918L795.184 338.465Z" fill="#DAB020"></path>
</svg></svg></g></g><defs><clipPath id="SvgjsClipPath1301"><rect width="1000" height="1000" x="0" y="0" rx="350" ry="350"></rect></clipPath></defs></svg>